<svg width="44" height="40" viewBox="0 0 44 40" fill="none" xmlns="http://www.w3.org/2000/svg">
<path d="M14.7255 39.2691C16.5329 39.2691 17.998 37.804 17.998 35.9967C17.998 34.1894 16.5329 32.7242 14.7255 32.7242C12.9182 32.7242 11.4531 34.1894 11.4531 35.9967C11.4531 37.804 12.9182 39.2691 14.7255 39.2691Z" fill="white"/>
<path d="M37.6328 39.2691C39.4401 39.2691 40.9052 37.804 40.9052 35.9967C40.9052 34.1894 39.4401 32.7242 37.6328 32.7242C35.8255 32.7242 34.3604 34.1894 34.3604 35.9967C34.3604 37.804 35.8255 39.2691 37.6328 39.2691Z" fill="white"/>
<path d="M43.4414 5.80651C43.2116 5.52533 42.922 5.29887 42.5937 5.14357C42.2654 4.98826 41.9066 4.90801 41.5434 4.90864H10.4196L9.79273 1.35192C9.72589 0.973064 9.52769 0.629875 9.23294 0.382636C8.9382 0.135397 8.56577 -8.08304e-05 8.18106 3.61809e-08H1.63621C1.20226 3.61809e-08 0.786085 0.172386 0.479235 0.479236C0.172386 0.786085 0 1.20226 0 1.63621C0 2.07016 0.172386 2.48634 0.479235 2.79319C0.786085 3.10004 1.20226 3.27242 1.63621 3.27242H6.80869L11.478 29.7361C11.5449 30.115 11.7431 30.4582 12.0378 30.7054C12.3326 30.9526 12.705 31.0881 13.0897 31.088H39.2691C39.703 31.088 40.1192 30.9156 40.4261 30.6088C40.7329 30.3019 40.9053 29.8858 40.9053 29.4518C40.9053 29.0179 40.7329 28.6017 40.4261 28.2948C40.1192 27.988 39.703 27.8156 39.2691 27.8156H14.4621L13.8853 24.5432H38.5982C39.1657 24.5425 39.7154 24.3457 40.1545 23.9862C40.5935 23.6268 40.8949 23.1266 41.0076 22.5705L43.9527 7.84461C44.0237 7.48823 44.0147 7.12053 43.9262 6.76807C43.8378 6.41561 43.6722 6.08719 43.4414 5.80651Z" fill="white"/>
</svg>
